<svg width="128" height="128" viewBox="0 0 128 128" fill="none" xmlns="http://www.w3.org/2000/svg">
  <defs>
    <linearGradient id="bg" x1="18" y1="14" x2="110" y2="116" gradientUnits="userSpaceOnUse">
      <stop stop-color="#0F3FB8"/>
      <stop offset="0.52" stop-color="#176BFF"/>
      <stop offset="1" stop-color="#21B7FF"/>
    </linearGradient>
    <radialGradient id="glow" cx="0" cy="0" r="1" gradientUnits="userSpaceOnUse" gradientTransform="translate(96 26) rotate(128) scale(74 78)">
      <stop stop-color="#B9E8FF" stop-opacity="0.72"/>
      <stop offset="1" stop-color="#B9E8FF" stop-opacity="0"/>
    </radialGradient>
    <linearGradient id="accent" x1="66" y1="74" x2="100" y2="102" gradientUnits="userSpaceOnUse">
      <stop stop-color="#0D46FF"/>
      <stop offset="1" stop-color="#0A8BFF"/>
    </linearGradient>
    <filter id="shadow" x="11" y="12" width="106" height="104" filterUnits="userSpaceOnUse" color-interpolation-filters="sRGB">
      <feFlood flood-opacity="0" result="BackgroundImageFix"/>
      <feColorMatrix in="SourceAlpha" type="matrix" values="0 0 0 0 0 0 0 0 0 0 0 0 0 0 0 0 0 0 127 0" result="hardAlpha"/>
      <feOffset dy="8"/>
      <feGaussianBlur stdDeviation="7"/>
      <feComposite in2="hardAlpha" operator="out"/>
      <feColorMatrix type="matrix" values="0 0 0 0 0.0509804 0 0 0 0 0.137255 0 0 0 0 0.360784 0 0 0 0.24 0"/>
      <feBlend mode="normal" in2="BackgroundImageFix" result="effect1_dropShadow_1_1"/>
      <feBlend mode="normal" in="SourceGraphic" in2="effect1_dropShadow_1_1" result="shape"/>
    </filter>
  </defs>

  <rect x="8" y="8" width="112" height="112" rx="28" fill="url(#bg)"/>
  <rect x="8" y="8" width="112" height="112" rx="28" fill="url(#glow)"/>

  <path d="M90 12H112L94 40L78 28L90 12Z" fill="white" fill-opacity="0.08"/>
  <path d="M16 80L40 104L18 120H8V92L16 80Z" fill="white" fill-opacity="0.08"/>

  <g filter="url(#shadow)">
    <path d="M31 26C31 22.6863 33.6863 20 37 20H69.5L91 41.5V90C91 93.3137 88.3137 96 85 96H37C33.6863 96 31 93.3137 31 90V26Z" fill="#FBFDFF"/>
    <path d="M69 20.5V36C69 39.3137 71.6863 42 75 42H90.5L69 20.5Z" fill="#D8EDFF"/>
    <rect x="43" y="44" width="26" height="6" rx="3" fill="#185FFF"/>
    <rect x="43" y="56" width="34" height="5" rx="2.5" fill="#ACCAFF"/>
    <rect x="43" y="66" width="28" height="5" rx="2.5" fill="#ACCAFF"/>
    <rect x="43" y="76" width="22" height="5" rx="2.5" fill="#ACCAFF"/>
  </g>

  <g filter="url(#shadow)">
    <circle cx="84" cy="85" r="18" fill="url(#accent)"/>
    <circle cx="84" cy="85" r="17.25" stroke="white" stroke-opacity="0.18" stroke-width="1.5"/>
    <path d="M84 73L87 81L95 84L87 87L84 95L81 87L73 84L81 81L84 73Z" fill="white"/>
    <circle cx="96.5" cy="71.5" r="3.5" fill="#C9F2FF"/>
    <circle cx="71.5" cy="96.5" r="3.5" fill="#C9F2FF"/>
  </g>
</svg>
